<svg width="25" height="25" viewBox="0 0 25 25" fill="none" xmlns="http://www.w3.org/2000/svg">
<g clip-path="url(#clip0_211_594)">
<path d="M8.50317 24.5C9.56404 24.5 10.5815 24.0786 11.3316 23.3284C12.0817 22.5783 12.5032 21.5609 12.5032 20.5V16.5H8.50317C7.44231 16.5 6.42489 16.9214 5.67475 17.6716C4.9246 18.4217 4.50317 19.4391 4.50317 20.5C4.50317 21.5609 4.9246 22.5783 5.67475 23.3284C6.42489 24.0786 7.44231 24.5 8.50317 24.5Z" fill="#0ACF83"/>
<path d="M4.50317 12.5C4.50317 11.4391 4.9246 10.4217 5.67475 9.67157C6.42489 8.92143 7.44231 8.5 8.50317 8.5H12.5032V16.5H8.50317C7.44231 16.5 6.42489 16.0786 5.67475 15.3284C4.9246 14.5783 4.50317 13.5609 4.50317 12.5Z" fill="#A259FF"/>
<path d="M4.50317 4.5C4.50317 3.43967 4.92417 2.42273 5.67364 1.67268C6.42311 0.922621 7.43972 0.500828 8.50005 0.5L12.5 0.5V8.5H8.50317C7.44231 8.5 6.42489 8.07857 5.67475 7.32843C4.9246 6.57828 4.50317 5.56087 4.50317 4.5Z" fill="#F24E1E"/>
<path d="M12.5032 0.5H16.5032C17.564 0.5 18.5815 0.921427 19.3316 1.67157C20.0817 2.42172 20.5032 3.43913 20.5032 4.5C20.5032 5.56087 20.0817 6.57828 19.3316 7.32843C18.5815 8.07857 17.564 8.5 16.5032 8.5H12.5032V0.5Z" fill="#FF7262"/>
<path d="M20.5032 12.5C20.5032 13.5609 20.0817 14.5783 19.3316 15.3284C18.5815 16.0786 17.564 16.5 16.5032 16.5C15.4423 16.5 14.4249 16.0786 13.6747 15.3284C12.9246 14.5783 12.5032 13.5609 12.5032 12.5C12.5032 11.4391 12.9246 10.4217 13.6747 9.67157C14.4249 8.92143 15.4423 8.5 16.5032 8.5C17.564 8.5 18.5815 8.92143 19.3316 9.67157C20.0817 10.4217 20.5032 11.4391 20.5032 12.5Z" fill="#1ABCFE"/>
</g>
<defs>
<clipPath id="clip0_211_594">
<rect width="24" height="24" fill="white" transform="translate(0.5 0.5)"/>
</clipPath>
</defs>
</svg>
